<svg width="1920" height="332" viewBox="0 0 1920 332" fill="none" xmlns="http://www.w3.org/2000/svg">
<g filter="url(#filter0_di_266_5)">
<rect x="-63" y="238.519" width="2106.22" height="72" transform="rotate(-6.11926 -63 238.519)" fill="#193242"/>
<rect x="-62.4495" y="238.963" width="2105.22" height="71" transform="rotate(-6.11926 -62.4495 238.963)" stroke="#FBFBDF" stroke-opacity="0.2"/>
</g>
<path d="M-30.0014 285.032L-31.6677 285.246L-34.8343 260.598L-25.739 259.43C-23.4016 259.13 -21.4698 259.517 -19.9438 260.591C-18.3947 261.662 -17.4848 263.251 -17.2143 265.357C-16.9823 267.162 -17.262 268.739 -18.0533 270.087C-18.8476 271.413 -20.044 272.355 -21.6425 272.913L-14.7269 283.069L-16.6015 283.31L-23.3515 273.344L-31.3706 274.374L-30.0014 285.032ZM-32.9717 261.912L-31.5668 272.847L-24.0685 271.884C-22.217 271.646 -20.8446 270.975 -19.9512 269.872C-19.0376 268.744 -18.6893 267.334 -18.9064 265.645C-19.1323 263.886 -19.8486 262.614 -21.0553 261.828C-22.2418 261.016 -23.7376 260.725 -25.5428 260.957L-32.9717 261.912ZM4.60752 280.585L-9.90322 282.45L-13.0698 257.802L1.40622 255.942L1.60246 257.47L-12.7694 259.316L-11.3767 257.796L-9.92278 269.113L1.74135 267.615L1.93759 269.142L-9.72654 270.641L-8.25921 282.062L-9.99531 280.909L4.41128 279.058L4.60752 280.585ZM11.4935 279.701L9.82719 279.915L6.66061 255.267L8.36163 255.049L25.9831 275.475L25.6707 275.515L22.8029 253.193L24.4692 252.979L27.6358 277.627L25.9695 277.841L8.34802 257.415L8.62574 257.379L11.4935 279.701ZM32.9596 276.943L31.2933 277.157L37.2567 251.337L39.7215 251.02L52.1221 274.481L50.4211 274.699L46.93 268.126L34.641 269.705L32.9596 276.943ZM38.4909 252.978L35.0002 268.106L46.1783 266.67L38.9075 252.924C38.8695 252.811 38.8214 252.712 38.7632 252.625C38.702 252.515 38.6539 252.416 38.6189 252.326C38.6047 252.398 38.5834 252.507 38.5549 252.652C38.5466 252.771 38.5253 252.879 38.4909 252.978ZM54.2628 249.152L57.4294 273.799L55.7631 274.013L52.5965 249.366L54.2628 249.152ZM59.7664 254.761C59.5939 253.419 59.7678 252.208 60.2879 251.13C60.8312 250.049 61.6704 249.164 62.8055 248.478C63.9375 247.768 65.3136 247.308 66.9336 247.1C68.3453 246.919 69.6162 247.014 70.7462 247.387C71.8964 247.733 72.8564 248.339 73.6263 249.205C74.3962 250.07 74.9469 251.152 75.2784 252.451L73.5427 252.674C73.1844 251.167 72.4426 250.062 71.3173 249.36C70.2151 248.655 68.8193 248.411 67.1298 248.628C65.2321 248.872 63.7526 249.532 62.6912 250.61C61.653 251.684 61.2335 252.996 61.4327 254.547C61.5843 255.727 62.0578 256.666 62.8532 257.364C63.6688 258.035 64.8062 258.466 66.2655 258.655L70.7823 259.204C72.6932 259.429 74.2045 260.022 75.3163 260.985C76.428 261.948 77.085 263.216 77.2872 264.79C77.4626 266.156 77.2802 267.391 76.7398 268.495C76.1995 269.6 75.3517 270.508 74.1965 271.221C73.0644 271.932 71.6768 272.392 70.0336 272.603C68.5062 272.799 67.1196 272.719 65.8739 272.361C64.6282 272.004 63.5987 271.407 62.7855 270.57C61.9693 269.711 61.41 268.653 61.1076 267.398L62.8781 267.171C63.1289 268.574 63.8879 269.629 65.155 270.336C66.4453 271.041 68.0046 271.276 69.8329 271.041C71.8001 270.788 73.3028 270.125 74.341 269.05C75.3994 267.95 75.8275 266.613 75.6253 265.039C75.4678 263.812 74.9797 262.852 74.1612 262.157C73.3397 261.439 72.1761 260.989 70.6705 260.806L66.2624 260.278C64.3515 260.053 62.8431 259.483 61.7373 258.566C60.6285 257.626 59.9715 256.358 59.7664 254.761ZM97.293 268.678L82.7822 270.542L79.6157 245.894L94.0917 244.035L94.2879 245.562L79.9161 247.409L81.3087 245.889L82.7627 257.206L94.4268 255.707L94.6231 257.235L82.9589 258.733L84.4263 270.154L82.6902 269.001L97.0967 267.15L97.293 268.678ZM126.51 264.924L110.68 266.958L110.502 265.569L117.425 257.657C118.555 256.383 119.472 255.277 120.175 254.34C120.878 253.403 121.406 252.57 121.759 251.843C122.133 251.089 122.369 250.365 122.468 249.67C122.567 248.975 122.566 248.234 122.465 247.447C122.236 245.665 121.534 244.32 120.359 243.412C119.183 242.505 117.705 242.165 115.923 242.394C114.094 242.629 112.682 243.446 111.685 244.844C110.689 246.243 110.288 247.976 110.483 250.045L108.817 250.259C108.669 248.561 108.851 247.043 109.361 245.707C109.892 244.345 110.703 243.241 111.794 242.395C112.909 241.547 114.241 241.023 115.792 240.823C117.25 240.636 118.574 240.783 119.765 241.266C120.953 241.725 121.93 242.458 122.694 243.465C123.459 244.473 123.934 245.694 124.118 247.129C124.234 248.031 124.228 248.902 124.101 249.742C123.994 250.556 123.726 251.402 123.298 252.28C122.89 253.132 122.294 254.079 121.51 255.121C120.75 256.16 119.764 257.369 118.553 258.748L112.123 266.102L111.595 265.288L126.314 263.396L126.51 264.924ZM128.738 252.111C128.408 249.542 128.503 247.259 129.023 245.264C129.539 243.245 130.447 241.611 131.745 240.362C133.043 239.113 134.699 238.359 136.712 238.1C138.726 237.842 140.518 238.152 142.09 239.033C143.662 239.913 144.953 241.264 145.963 243.087C146.971 244.887 147.64 247.071 147.97 249.64C148.3 252.209 148.206 254.503 147.689 256.522C147.169 258.517 146.26 260.14 144.962 261.389C143.664 262.638 142.008 263.392 139.995 263.65C137.982 263.909 136.189 263.598 134.617 262.718C133.046 261.838 131.756 260.498 130.749 258.698C129.738 256.875 129.068 254.679 128.738 252.111ZM130.369 251.901C130.655 254.123 131.218 256.038 132.06 257.647C132.902 259.257 133.974 260.46 135.277 261.257C136.599 262.028 138.105 262.305 139.794 262.088C141.484 261.871 142.859 261.224 143.92 260.146C145.002 259.043 145.747 257.606 146.154 255.837C146.562 254.067 146.623 252.071 146.338 249.849C146.05 247.605 145.486 245.689 144.647 244.103C143.805 242.494 142.723 241.304 141.401 240.533C140.098 239.735 138.603 239.445 136.913 239.662C135.224 239.879 133.838 240.54 132.757 241.643C131.695 242.721 130.961 244.144 130.553 245.914C130.142 247.66 130.081 249.656 130.369 251.901ZM169.022 259.462L153.192 261.496L153.014 260.107L159.937 252.196C161.067 250.921 161.984 249.815 162.687 248.878C163.39 247.941 163.918 247.109 164.271 246.381C164.645 245.627 164.881 244.903 164.98 244.208C165.079 243.513 165.078 242.772 164.977 241.985C164.748 240.203 164.046 238.858 162.871 237.951C161.695 237.043 160.217 236.704 158.435 236.933C156.606 237.168 155.194 237.984 154.197 239.383C153.201 240.781 152.8 242.515 152.995 244.583L151.329 244.797C151.181 243.099 151.363 241.582 151.873 240.246C152.404 238.884 153.215 237.78 154.306 236.934C155.42 236.085 156.753 235.561 158.303 235.362C159.761 235.174 161.086 235.322 162.277 235.804C163.465 236.263 164.442 236.996 165.206 238.003C165.971 239.011 166.445 240.232 166.63 241.667C166.746 242.57 166.74 243.441 166.613 244.28C166.505 245.094 166.238 245.94 165.81 246.818C165.401 247.671 164.806 248.618 164.022 249.659C163.261 250.698 162.276 251.907 161.065 253.286L154.635 260.64L154.107 259.826L168.826 257.935L169.022 259.462ZM180.632 258.394C179.012 258.602 177.572 258.47 176.311 257.996C175.047 257.5 174.017 256.715 173.221 255.641C172.421 254.544 171.92 253.209 171.718 251.635L173.384 251.421C173.631 253.342 174.381 254.786 175.635 255.754C176.912 256.72 178.51 257.079 180.431 256.832C181.797 256.656 182.941 256.227 183.865 255.544C184.809 254.834 185.495 253.946 185.922 252.88C186.347 251.79 186.475 250.586 186.305 249.267C186.147 248.04 185.737 246.952 185.074 246.002C184.411 245.052 183.532 244.342 182.436 243.871C181.36 243.374 180.105 243.217 178.67 243.402C177.467 243.556 176.353 243.947 175.327 244.572C174.325 245.195 173.481 245.95 172.795 246.838L171.618 246.46L172.968 233.901L184.459 232.425L184.655 233.952L173.06 235.442L174.544 233.804L173.273 245.613L172.63 245.272C173.33 244.311 174.195 243.542 175.226 242.962C176.278 242.357 177.394 241.978 178.574 241.826C180.31 241.603 181.84 241.795 183.165 242.401C184.512 243.004 185.604 243.899 186.438 245.086C187.27 246.249 187.783 247.583 187.976 249.087C188.181 250.684 188.005 252.154 187.448 253.496C186.912 254.811 186.053 255.91 184.872 256.791C183.712 257.646 182.298 258.18 180.632 258.394Z" fill="#FBFBDF"/>
<path d="M320.044 248.019L318.378 248.233L315.211 223.586L324.306 222.417C326.644 222.117 328.576 222.504 330.102 223.578C331.651 224.65 332.561 226.238 332.831 228.344C333.063 230.15 332.783 231.726 331.992 233.075C331.198 234.4 330.001 235.342 328.403 235.9L335.318 246.057L333.444 246.298L326.694 236.332L318.675 237.362L320.044 248.019ZM317.074 224.899L318.479 235.834L325.977 234.871C327.828 234.633 329.201 233.963 330.094 232.86C331.008 231.731 331.356 230.322 331.139 228.632C330.913 226.873 330.197 225.601 328.99 224.815C327.804 224.003 326.308 223.713 324.503 223.945L317.074 224.899ZM354.653 243.573L340.142 245.437L336.976 220.79L351.452 218.93L351.648 220.457L337.276 222.304L338.669 220.784L340.123 232.101L351.787 230.602L351.983 232.13L340.319 233.628L341.786 245.049L340.05 243.896L354.457 242.045L354.653 243.573ZM361.539 242.688L359.873 242.902L356.706 218.255L358.407 218.036L376.029 238.462L375.716 238.502L372.848 216.181L374.515 215.967L377.681 240.614L376.015 240.828L358.393 220.402L358.671 220.367L361.539 242.688ZM383.005 239.93L381.339 240.144L387.302 214.324L389.767 214.007L402.168 237.468L400.467 237.687L396.975 231.113L384.686 232.692L383.005 239.93ZM388.536 215.965L385.046 231.093L396.224 229.657L388.953 215.912C388.915 215.799 388.867 215.699 388.809 215.613C388.747 215.503 388.699 215.403 388.664 215.313C388.65 215.386 388.629 215.494 388.6 215.639C388.592 215.758 388.571 215.867 388.536 215.965ZM404.308 212.139L407.475 236.787L405.809 237.001L402.642 212.353L404.308 212.139ZM409.812 217.749C409.639 216.406 409.813 215.196 410.333 214.117C410.877 213.036 411.716 212.152 412.851 211.465C413.983 210.755 415.359 210.296 416.979 210.088C418.391 209.906 419.662 210.002 420.792 210.374C421.942 210.721 422.902 211.326 423.672 212.192C424.442 213.058 424.992 214.14 425.324 215.438L423.588 215.661C423.23 214.154 422.488 213.05 421.363 212.348C420.261 211.642 418.865 211.398 417.175 211.615C415.278 211.859 413.798 212.52 412.737 213.597C411.698 214.671 411.279 215.984 411.478 217.534C411.63 218.715 412.103 219.654 412.899 220.351C413.714 221.023 414.852 221.453 416.311 221.642L420.828 222.191C422.739 222.416 424.25 223.01 425.362 223.973C426.473 224.936 427.13 226.204 427.333 227.778C427.508 229.143 427.326 230.378 426.785 231.483C426.245 232.587 425.397 233.496 424.242 234.209C423.11 234.919 421.722 235.38 420.079 235.591C418.552 235.787 417.165 235.706 415.919 235.349C414.674 234.991 413.644 234.394 412.831 233.558C412.015 232.698 411.455 231.641 411.153 230.386L412.923 230.158C413.174 231.561 413.933 232.616 415.2 233.324C416.491 234.029 418.05 234.263 419.878 234.028C421.846 233.776 423.348 233.112 424.386 232.038C425.445 230.937 425.873 229.6 425.671 228.026C425.513 226.8 425.025 225.839 424.207 225.145C423.385 224.427 422.222 223.976 420.716 223.793L416.308 223.266C414.397 223.041 412.889 222.47 411.783 221.553C410.674 220.614 410.017 219.345 409.812 217.749ZM447.338 231.665L432.828 233.529L429.661 208.882L444.137 207.022L444.333 208.55L429.961 210.396L431.354 208.876L432.808 220.193L444.472 218.695L444.668 220.222L433.004 221.721L434.472 233.142L432.736 231.988L447.142 230.138L447.338 231.665ZM476.555 227.911L460.726 229.945L460.547 228.557L467.47 220.645C468.601 219.37 469.517 218.265 470.22 217.327C470.923 216.39 471.451 215.558 471.805 214.83C472.178 214.076 472.415 213.352 472.514 212.657C472.613 211.962 472.611 211.221 472.51 210.434C472.281 208.652 471.579 207.308 470.404 206.4C469.229 205.492 467.75 205.153 465.968 205.382C464.14 205.617 462.727 206.433 461.731 207.832C460.734 209.23 460.334 210.964 460.529 213.032L458.862 213.246C458.715 211.548 458.896 210.031 459.407 208.695C459.938 207.333 460.749 206.229 461.84 205.383C462.954 204.534 464.286 204.01 465.837 203.811C467.295 203.623 468.62 203.771 469.811 204.253C470.999 204.712 471.975 205.445 472.74 206.453C473.504 207.46 473.979 208.681 474.163 210.116C474.279 211.019 474.274 211.89 474.146 212.73C474.039 213.543 473.771 214.389 473.343 215.268C472.935 216.12 472.339 217.067 471.555 218.109C470.795 219.147 469.809 220.356 468.598 221.735L462.168 229.089L461.64 228.275L476.359 226.384L476.555 227.911ZM478.783 215.098C478.453 212.529 478.548 210.247 479.068 208.251C479.585 206.232 480.492 204.598 481.79 203.349C483.089 202.1 484.744 201.346 486.758 201.088C488.771 200.829 490.564 201.14 492.135 202.02C493.707 202.9 494.998 204.252 496.009 206.074C497.016 207.874 497.685 210.058 498.015 212.627C498.345 215.196 498.252 217.49 497.735 219.509C497.215 221.505 496.306 223.127 495.008 224.376C493.71 225.625 492.054 226.379 490.04 226.638C488.027 226.896 486.234 226.586 484.663 225.705C483.091 224.825 481.801 223.485 480.794 221.686C479.783 219.863 479.113 217.667 478.783 215.098ZM480.415 214.888C480.7 217.11 481.264 219.026 482.106 220.635C482.948 222.244 484.02 223.447 485.322 224.244C486.644 225.016 488.15 225.293 489.84 225.075C491.529 224.858 492.905 224.211 493.966 223.134C495.047 222.03 495.792 220.594 496.2 218.824C496.608 217.054 496.669 215.059 496.383 212.837C496.095 210.592 495.531 208.677 494.692 207.091C493.851 205.481 492.768 204.291 491.446 203.52C490.144 202.723 488.648 202.433 486.959 202.65C485.269 202.867 483.884 203.527 482.802 204.631C481.741 205.708 481.006 207.132 480.598 208.901C480.187 210.648 480.126 212.644 480.415 214.888ZM519.067 222.45L503.237 224.483L503.059 223.095L509.982 215.183C511.112 213.909 512.029 212.803 512.732 211.866C513.435 210.928 513.963 210.096 514.317 209.368C514.69 208.615 514.927 207.89 515.026 207.195C515.124 206.5 515.123 205.76 515.022 204.973C514.793 203.191 514.091 201.846 512.916 200.938C511.741 200.031 510.262 199.691 508.48 199.92C506.652 200.155 505.239 200.972 504.243 202.37C503.246 203.768 502.845 205.502 503.041 207.571L501.374 207.785C501.227 206.086 501.408 204.569 501.919 203.233C502.45 201.871 503.261 200.767 504.352 199.921C505.466 199.072 506.798 198.548 508.349 198.349C509.807 198.162 511.131 198.309 512.323 198.791C513.511 199.25 514.487 199.984 515.252 200.991C516.016 201.998 516.491 203.22 516.675 204.654C516.791 205.557 516.785 206.428 516.658 207.268C516.551 208.082 516.283 208.928 515.855 209.806C515.447 210.658 514.851 211.605 514.067 212.647C513.307 213.686 512.321 214.894 511.11 216.273L504.68 223.628L504.152 222.813L518.871 220.922L519.067 222.45ZM530.677 221.382C529.057 221.59 527.617 221.457 526.356 220.984C525.093 220.488 524.063 219.702 523.266 218.628C522.466 217.531 521.966 216.196 521.763 214.622L523.43 214.408C523.676 216.329 524.427 217.774 525.68 218.742C526.957 219.707 528.556 220.066 530.477 219.819C531.842 219.644 532.987 219.215 533.91 218.531C534.854 217.822 535.54 216.934 535.968 215.867C536.392 214.778 536.52 213.573 536.35 212.254C536.193 211.028 535.783 209.939 535.119 208.989C534.456 208.04 533.577 207.329 532.481 206.858C531.406 206.361 530.151 206.205 528.716 206.389C527.512 206.544 526.398 206.934 525.373 207.56C524.371 208.183 523.527 208.938 522.841 209.826L521.663 209.448L523.014 196.888L534.504 195.412L534.701 196.94L523.106 198.429L524.589 196.792L523.319 208.6L522.675 208.259C523.375 207.299 524.241 206.529 525.272 205.95C526.323 205.344 527.439 204.965 528.619 204.814C530.355 204.591 531.885 204.782 533.21 205.388C534.558 205.992 535.649 206.886 536.484 208.073C537.315 209.237 537.828 210.571 538.021 212.075C538.226 213.672 538.051 215.141 537.494 216.483C536.957 217.799 536.098 218.897 534.918 219.778C533.757 220.633 532.344 221.167 530.677 221.382Z" fill="#FBFBDF"/>
<path d="M670.089 211.007L668.423 211.221L665.257 186.573L674.352 185.405C676.689 185.104 678.621 185.491 680.147 186.566C681.696 187.637 682.606 189.226 682.877 191.332C683.108 193.137 682.829 194.714 682.038 196.062C681.243 197.388 680.047 198.329 678.448 198.888L685.364 209.044L683.489 209.285L676.739 199.319L668.72 200.349L670.089 211.007ZM667.119 187.887L668.524 198.822L676.022 197.858C677.874 197.621 679.246 196.95 680.14 195.847C681.053 194.718 681.402 193.309 681.184 191.62C680.958 189.861 680.242 188.588 679.036 187.802C677.849 186.99 676.353 186.7 674.548 186.932L667.119 187.887ZM704.698 206.56L690.188 208.425L687.021 183.777L701.497 181.917L701.693 183.445L687.321 185.291L688.714 183.771L690.168 195.088L701.832 193.59L702.028 195.117L690.364 196.616L691.832 208.037L690.096 206.884L704.502 205.033L704.698 206.56ZM711.584 205.676L709.918 205.89L706.751 181.242L708.452 181.024L726.074 201.45L725.762 201.49L722.894 179.168L724.56 178.954L727.727 203.602L726.06 203.816L708.439 183.39L708.717 183.354L711.584 205.676ZM733.05 202.918L731.384 203.132L737.348 177.311L739.812 176.995L752.213 200.456L750.512 200.674L747.021 194.101L734.732 195.679L733.05 202.918ZM738.582 178.953L735.091 194.081L746.269 192.645L738.998 178.899C738.96 178.786 738.912 178.687 738.854 178.6C738.793 178.49 738.745 178.39 738.71 178.301C738.696 178.373 738.674 178.482 738.646 178.627C738.637 178.745 738.616 178.854 738.582 178.953ZM754.354 175.127L757.52 199.774L755.854 199.988L752.687 175.341L754.354 175.127ZM759.857 180.736C759.685 179.394 759.859 178.183 760.379 177.105C760.922 176.024 761.761 175.139 762.896 174.452C764.028 173.742 765.404 173.283 767.024 173.075C768.436 172.894 769.707 172.989 770.837 173.362C771.987 173.708 772.947 174.314 773.717 175.18C774.487 176.045 775.038 177.127 775.369 178.425L773.633 178.648C773.275 177.142 772.533 176.037 771.408 175.335C770.306 174.63 768.91 174.386 767.221 174.603C765.323 174.846 763.843 175.507 762.782 176.584C761.744 177.659 761.324 178.971 761.523 180.522C761.675 181.702 762.149 182.641 762.944 183.339C763.76 184.01 764.897 184.441 766.356 184.63L770.873 185.178C772.784 185.403 774.295 185.997 775.407 186.96C776.519 187.923 777.176 189.191 777.378 190.765C777.553 192.131 777.371 193.366 776.831 194.47C776.29 195.575 775.443 196.483 774.287 197.196C773.155 197.906 771.768 198.367 770.124 198.578C768.597 198.774 767.21 198.694 765.965 198.336C764.719 197.979 763.69 197.382 762.876 196.545C762.06 195.685 761.501 194.628 761.198 193.373L762.969 193.146C763.22 194.548 763.979 195.604 765.246 196.311C766.536 197.016 768.095 197.251 769.924 197.016C771.891 196.763 773.394 196.1 774.432 195.025C775.49 193.925 775.918 192.588 775.716 191.014C775.559 189.787 775.071 188.827 774.252 188.132C773.43 187.414 772.267 186.964 770.761 186.781L766.353 186.253C764.442 186.028 762.934 185.457 761.828 184.541C760.719 183.601 760.062 182.333 759.857 180.736ZM797.384 194.652L782.873 196.517L779.706 171.869L794.183 170.01L794.379 171.537L780.007 173.383L781.4 171.864L782.854 183.181L794.518 181.682L794.714 183.209L783.05 184.708L784.517 196.129L782.781 194.976L797.188 193.125L797.384 194.652ZM826.601 190.899L810.771 192.933L810.593 191.544L817.516 183.632C818.646 182.358 819.563 181.252 820.265 180.315C820.968 179.378 821.497 178.545 821.85 177.818C822.224 177.064 822.46 176.339 822.559 175.645C822.658 174.95 822.657 174.209 822.556 173.422C822.327 171.64 821.625 170.295 820.45 169.387C819.274 168.48 817.796 168.14 816.014 168.369C814.185 168.604 812.773 169.421 811.776 170.819C810.78 172.218 810.379 173.951 810.574 176.02L808.908 176.234C808.76 174.535 808.942 173.018 809.452 171.682C809.983 170.32 810.794 169.216 811.885 168.37C812.999 167.521 814.332 166.997 815.882 166.798C817.34 166.611 818.665 166.758 819.856 167.24C821.044 167.699 822.021 168.433 822.785 169.44C823.55 170.448 824.024 171.669 824.209 173.104C824.325 174.006 824.319 174.877 824.192 175.717C824.084 176.531 823.817 177.377 823.388 178.255C822.98 179.107 822.385 180.054 821.601 181.096C820.84 182.135 819.855 183.344 818.644 184.722L812.214 192.077L811.686 191.262L826.405 189.371L826.601 190.899ZM828.829 178.085C828.499 175.517 828.593 173.234 829.113 171.238C829.63 169.219 830.538 167.585 831.836 166.336C833.134 165.088 834.79 164.334 836.803 164.075C838.817 163.816 840.609 164.127 842.181 165.007C843.753 165.888 845.044 167.239 846.054 169.062C847.062 170.862 847.73 173.046 848.06 175.615C848.391 178.184 848.297 180.478 847.78 182.497C847.26 184.492 846.351 186.115 845.053 187.364C843.755 188.613 842.099 189.366 840.086 189.625C838.072 189.884 836.28 189.573 834.708 188.693C833.136 187.813 831.847 186.473 830.839 184.673C829.829 182.85 829.159 180.654 828.829 178.085ZM830.46 177.876C830.746 180.098 831.309 182.013 832.151 183.622C832.993 185.231 834.065 186.435 835.367 187.232C836.69 188.003 838.196 188.28 839.885 188.063C841.575 187.846 842.95 187.199 844.011 186.121C845.093 185.018 845.838 183.581 846.245 181.811C846.653 180.042 846.714 178.046 846.429 175.824C846.14 173.579 845.577 171.664 844.738 170.078C843.896 168.469 842.814 167.279 841.491 166.508C840.189 165.71 838.693 165.42 837.004 165.637C835.314 165.854 833.929 166.515 832.847 167.618C831.786 168.695 831.052 170.119 830.644 171.889C830.233 173.635 830.172 175.631 830.46 177.876ZM869.113 185.437L853.283 187.471L853.104 186.082L860.028 178.171C861.158 176.896 862.074 175.79 862.777 174.853C863.48 173.916 864.009 173.083 864.362 172.356C864.736 171.602 864.972 170.878 865.071 170.183C865.17 169.488 865.169 168.747 865.068 167.96C864.839 166.178 864.137 164.833 862.961 163.926C861.786 163.018 860.308 162.679 858.526 162.908C856.697 163.142 855.285 163.959 854.288 165.357C853.292 166.756 852.891 168.489 853.086 170.558L851.42 170.772C851.272 169.074 851.454 167.557 851.964 166.221C852.495 164.859 853.306 163.755 854.397 162.909C855.511 162.06 856.844 161.536 858.394 161.336C859.852 161.149 861.177 161.297 862.368 161.779C863.556 162.238 864.533 162.971 865.297 163.978C866.062 164.986 866.536 166.207 866.721 167.642C866.837 168.544 866.831 169.416 866.704 170.255C866.596 171.069 866.329 171.915 865.9 172.793C865.492 173.646 864.896 174.593 864.113 175.634C863.352 176.673 862.367 177.882 861.156 179.261L854.726 186.615L854.197 185.801L868.916 183.91L869.113 185.437ZM880.723 184.369C879.103 184.577 877.662 184.445 876.402 183.971C875.138 183.475 874.108 182.69 873.311 181.616C872.512 180.519 872.011 179.183 871.809 177.61L873.475 177.396C873.722 179.317 874.472 180.761 875.726 181.729C877.002 182.694 878.601 183.054 880.522 182.807C881.887 182.631 883.032 182.202 883.956 181.519C884.9 180.809 885.586 179.921 886.013 178.855C886.438 177.765 886.565 176.561 886.396 175.242C886.238 174.015 885.828 172.927 885.165 171.977C884.502 171.027 883.622 170.317 882.527 169.846C881.451 169.349 880.196 169.192 878.761 169.377C877.558 169.531 876.443 169.921 875.418 170.547C874.416 171.17 873.572 171.925 872.886 172.813L871.709 172.435L873.059 159.876L884.55 158.4L884.746 159.927L873.151 161.417L874.635 159.779L873.364 171.587L872.72 171.247C873.42 170.286 874.286 169.516 875.317 168.937C876.369 168.331 877.484 167.953 878.665 167.801C880.4 167.578 881.931 167.77 883.255 168.376C884.603 168.979 885.694 169.874 886.529 171.061C887.361 172.224 887.873 173.558 888.067 175.062C888.272 176.659 888.096 178.129 887.539 179.47C887.002 180.786 886.144 181.885 884.963 182.766C883.802 183.62 882.389 184.155 880.723 184.369Z" fill="#FBFBDF"/>
<path d="M1020.14 173.994L1018.47 174.208L1015.3 149.561L1024.4 148.392C1026.74 148.092 1028.67 148.479 1030.19 149.553C1031.74 150.625 1032.65 152.213 1032.92 154.319C1033.15 156.124 1032.87 157.701 1032.08 159.05C1031.29 160.375 1030.09 161.317 1028.49 161.875L1035.41 172.032L1033.54 172.273L1026.79 162.306L1018.77 163.337L1020.14 173.994ZM1017.16 150.874L1018.57 161.809L1026.07 160.846C1027.92 160.608 1029.29 159.938 1030.19 158.835C1031.1 157.706 1031.45 156.297 1031.23 154.607C1031 152.848 1030.29 151.576 1029.08 150.79C1027.89 149.978 1026.4 149.688 1024.59 149.92L1017.16 150.874ZM1054.74 169.548L1040.23 171.412L1037.07 146.765L1051.54 144.905L1051.74 146.432L1037.37 148.279L1038.76 146.759L1040.21 158.076L1051.88 156.577L1052.07 158.105L1040.41 159.603L1041.88 171.024L1040.14 169.871L1054.55 168.02L1054.74 169.548ZM1061.63 168.663L1059.96 168.877L1056.8 144.23L1058.5 144.011L1076.12 164.437L1075.81 164.477L1072.94 142.156L1074.61 141.942L1077.77 166.589L1076.11 166.803L1058.48 146.377L1058.76 146.341L1061.63 168.663ZM1083.1 165.905L1081.43 166.119L1087.39 140.299L1089.86 139.982L1102.26 163.443L1100.56 163.662L1097.07 157.088L1084.78 158.667L1083.1 165.905ZM1088.63 141.94L1085.14 157.068L1096.32 155.632L1089.04 141.886C1089.01 141.774 1088.96 141.674 1088.9 141.587C1088.84 141.478 1088.79 141.378 1088.76 141.288C1088.74 141.361 1088.72 141.469 1088.69 141.614C1088.68 141.733 1088.66 141.841 1088.63 141.94ZM1104.4 138.114L1107.57 162.761L1105.9 162.975L1102.73 138.328L1104.4 138.114ZM1109.9 143.723C1109.73 142.381 1109.9 141.171 1110.42 140.092C1110.97 139.011 1111.81 138.127 1112.94 137.44C1114.07 136.73 1115.45 136.271 1117.07 136.063C1118.48 135.881 1119.75 135.977 1120.88 136.349C1122.03 136.695 1122.99 137.301 1123.76 138.167C1124.53 139.033 1125.08 140.115 1125.42 141.413L1123.68 141.636C1123.32 140.129 1122.58 139.025 1121.45 138.322C1120.35 137.617 1118.96 137.373 1117.27 137.59C1115.37 137.834 1113.89 138.494 1112.83 139.572C1111.79 140.646 1111.37 141.959 1111.57 143.509C1111.72 144.69 1112.19 145.629 1112.99 146.326C1113.81 146.998 1114.94 147.428 1116.4 147.617L1120.92 148.166C1122.83 148.391 1124.34 148.985 1125.45 149.948C1126.56 150.91 1127.22 152.179 1127.42 153.753C1127.6 155.118 1127.42 156.353 1126.88 157.457C1126.34 158.562 1125.49 159.471 1124.33 160.184C1123.2 160.894 1121.81 161.354 1120.17 161.566C1118.64 161.762 1117.26 161.681 1116.01 161.324C1114.76 160.966 1113.74 160.369 1112.92 159.533C1112.11 158.673 1111.55 157.616 1111.24 156.36L1113.01 156.133C1113.27 157.536 1114.02 158.591 1115.29 159.299C1116.58 160.003 1118.14 160.238 1119.97 160.003C1121.94 159.751 1123.44 159.087 1124.48 158.013C1125.54 156.912 1125.96 155.575 1125.76 154.001C1125.6 152.775 1125.12 151.814 1124.3 151.119C1123.48 150.402 1122.31 149.951 1120.81 149.768L1116.4 149.241C1114.49 149.016 1112.98 148.445 1111.87 147.528C1110.77 146.589 1110.11 145.32 1109.9 143.723ZM1147.43 157.64L1132.92 159.504L1129.75 134.857L1144.23 132.997L1144.42 134.524L1130.05 136.371L1131.45 134.851L1132.9 146.168L1144.56 144.669L1144.76 146.197L1133.1 147.695L1134.56 159.117L1132.83 157.963L1147.23 156.112L1147.43 157.64ZM1176.65 153.886L1160.82 155.92L1160.64 154.531L1167.56 146.62C1168.69 145.345 1169.61 144.239 1170.31 143.302C1171.01 142.365 1171.54 141.533 1171.9 140.805C1172.27 140.051 1172.51 139.327 1172.6 138.632C1172.7 137.937 1172.7 137.196 1172.6 136.409C1172.37 134.627 1171.67 133.282 1170.5 132.375C1169.32 131.467 1167.84 131.128 1166.06 131.357C1164.23 131.592 1162.82 132.408 1161.82 133.807C1160.83 135.205 1160.42 136.939 1160.62 139.007L1158.95 139.221C1158.81 137.523 1158.99 136.006 1159.5 134.67C1160.03 133.308 1160.84 132.204 1161.93 131.358C1163.05 130.509 1164.38 129.985 1165.93 129.786C1167.39 129.598 1168.71 129.746 1169.9 130.228C1171.09 130.687 1172.07 131.42 1172.83 132.428C1173.6 133.435 1174.07 134.656 1174.25 136.091C1174.37 136.994 1174.36 137.865 1174.24 138.704C1174.13 139.518 1173.86 140.364 1173.43 141.243C1173.03 142.095 1172.43 143.042 1171.65 144.083C1170.89 145.122 1169.9 146.331 1168.69 147.71L1162.26 155.064L1161.73 154.25L1176.45 152.359L1176.65 153.886ZM1178.87 141.073C1178.54 138.504 1178.64 136.222 1179.16 134.226C1179.68 132.207 1180.58 130.573 1181.88 129.324C1183.18 128.075 1184.84 127.321 1186.85 127.063C1188.86 126.804 1190.66 127.115 1192.23 127.995C1193.8 128.875 1195.09 130.227 1196.1 132.049C1197.11 133.849 1197.78 136.033 1198.11 138.602C1198.44 141.171 1198.34 143.465 1197.83 145.484C1197.31 147.48 1196.4 149.102 1195.1 150.351C1193.8 151.6 1192.15 152.354 1190.13 152.613C1188.12 152.871 1186.33 152.56 1184.75 151.68C1183.18 150.8 1181.89 149.46 1180.89 147.66C1179.87 145.838 1179.2 143.642 1178.87 141.073ZM1180.51 140.863C1180.79 143.085 1181.36 145 1182.2 146.61C1183.04 148.219 1184.11 149.422 1185.41 150.219C1186.74 150.99 1188.24 151.267 1189.93 151.05C1191.62 150.833 1193 150.186 1194.06 149.109C1195.14 148.005 1195.88 146.569 1196.29 144.799C1196.7 143.029 1196.76 141.033 1196.47 138.812C1196.19 136.567 1195.62 134.651 1194.78 133.065C1193.94 131.456 1192.86 130.266 1191.54 129.495C1190.24 128.698 1188.74 128.408 1187.05 128.625C1185.36 128.842 1183.97 129.502 1182.89 130.605C1181.83 131.683 1181.1 133.106 1180.69 134.876C1180.28 136.623 1180.22 138.618 1180.51 140.863ZM1219.16 148.425L1203.33 150.458L1203.15 149.07L1210.07 141.158C1211.2 139.884 1212.12 138.778 1212.82 137.841C1213.53 136.903 1214.05 136.071 1214.41 135.343C1214.78 134.589 1215.02 133.865 1215.12 133.17C1215.22 132.475 1215.21 131.734 1215.11 130.948C1214.88 129.165 1214.18 127.821 1213.01 126.913C1211.83 126.005 1210.35 125.666 1208.57 125.895C1206.74 126.13 1205.33 126.947 1204.33 128.345C1203.34 129.743 1202.94 131.477 1203.13 133.545L1201.47 133.76C1201.32 132.061 1201.5 130.544 1202.01 129.208C1202.54 127.846 1203.35 126.742 1204.44 125.896C1205.56 125.047 1206.89 124.523 1208.44 124.324C1209.9 124.137 1211.22 124.284 1212.41 124.766C1213.6 125.225 1214.58 125.958 1215.34 126.966C1216.11 127.973 1216.58 129.194 1216.77 130.629C1216.88 131.532 1216.88 132.403 1216.75 133.243C1216.64 134.056 1216.37 134.902 1215.95 135.781C1215.54 136.633 1214.94 137.58 1214.16 138.622C1213.4 139.66 1212.41 140.869 1211.2 142.248L1204.77 149.602L1204.24 148.788L1218.96 146.897L1219.16 148.425ZM1230.77 147.356C1229.15 147.565 1227.71 147.432 1226.45 146.959C1225.18 146.462 1224.15 145.677 1223.36 144.603C1222.56 143.506 1222.06 142.171 1221.85 140.597L1223.52 140.383C1223.77 142.304 1224.52 143.748 1225.77 144.717C1227.05 145.682 1228.65 146.041 1230.57 145.794C1231.93 145.619 1233.08 145.189 1234 144.506C1234.95 143.797 1235.63 142.909 1236.06 141.842C1236.48 140.753 1236.61 139.548 1236.44 138.229C1236.28 137.002 1235.87 135.914 1235.21 134.964C1234.55 134.014 1233.67 133.304 1232.57 132.833C1231.5 132.336 1230.24 132.18 1228.81 132.364C1227.6 132.519 1226.49 132.909 1225.46 133.535C1224.46 134.157 1223.62 134.913 1222.93 135.801L1221.75 135.423L1223.11 122.863L1234.6 121.387L1234.79 122.914L1223.2 124.404L1224.68 122.767L1223.41 134.575L1222.77 134.234C1223.47 133.274 1224.33 132.504 1225.36 131.924C1226.41 131.319 1227.53 130.94 1228.71 130.789C1230.45 130.566 1231.98 130.757 1233.3 131.363C1234.65 131.966 1235.74 132.861 1236.58 134.048C1237.41 135.211 1237.92 136.545 1238.11 138.05C1238.32 139.647 1238.14 141.116 1237.58 142.458C1237.05 143.774 1236.19 144.872 1235.01 145.753C1233.85 146.608 1232.43 147.142 1230.77 147.356Z" fill="#FBFBDF"/>
<path d="M1370.18 136.981L1368.51 137.196L1365.35 112.548L1374.44 111.38C1376.78 111.079 1378.71 111.466 1380.24 112.541C1381.79 113.612 1382.7 115.201 1382.97 117.307C1383.2 119.112 1382.92 120.689 1382.13 122.037C1381.33 123.362 1380.14 124.304 1378.54 124.863L1385.46 135.019L1383.58 135.26L1376.83 125.294L1368.81 126.324L1370.18 136.981ZM1367.21 113.862L1368.62 124.797L1376.11 123.833C1377.97 123.595 1379.34 122.925 1380.23 121.822C1381.14 120.693 1381.49 119.284 1381.28 117.595C1381.05 115.836 1380.33 114.563 1379.13 113.777C1377.94 112.965 1376.44 112.675 1374.64 112.907L1367.21 113.862ZM1404.79 132.535L1390.28 134.399L1387.11 109.752L1401.59 107.892L1401.78 109.42L1387.41 111.266L1388.81 109.746L1390.26 121.063L1401.92 119.565L1402.12 121.092L1390.46 122.591L1391.92 134.012L1390.19 132.859L1404.59 131.008L1404.79 132.535ZM1411.68 131.65L1410.01 131.865L1406.84 107.217L1408.54 106.999L1426.17 127.425L1425.85 127.465L1422.99 105.143L1424.65 104.929L1427.82 129.577L1426.15 129.791L1408.53 109.365L1408.81 109.329L1411.68 131.65ZM1433.14 128.893L1431.48 129.107L1437.44 103.286L1439.9 102.97L1452.3 126.431L1450.6 126.649L1447.11 120.075L1434.82 121.654L1433.14 128.893ZM1438.67 104.927L1435.18 120.056L1446.36 118.619L1439.09 104.874C1439.05 104.761 1439 104.661 1438.95 104.575C1438.88 104.465 1438.84 104.365 1438.8 104.276C1438.79 104.348 1438.77 104.457 1438.74 104.602C1438.73 104.72 1438.71 104.829 1438.67 104.927ZM1454.44 101.101L1457.61 125.749L1455.95 125.963L1452.78 101.315L1454.44 101.101ZM1459.95 106.711C1459.78 105.369 1459.95 104.158 1460.47 103.08C1461.01 101.998 1461.85 101.114 1462.99 100.427C1464.12 99.7173 1465.5 99.2582 1467.12 99.0501C1468.53 98.8687 1469.8 98.9642 1470.93 99.3366C1472.08 99.6828 1473.04 100.289 1473.81 101.154C1474.58 102.02 1475.13 103.102 1475.46 104.4L1473.72 104.623C1473.37 103.117 1472.62 102.012 1471.5 101.31C1470.4 100.605 1469 100.36 1467.31 100.578C1465.41 100.821 1463.93 101.482 1462.87 102.559C1461.84 103.634 1461.42 104.946 1461.61 106.497C1461.77 107.677 1462.24 108.616 1463.04 109.314C1463.85 109.985 1464.99 110.415 1466.45 110.604L1470.96 111.153C1472.88 111.378 1474.39 111.972 1475.5 112.935C1476.61 113.898 1477.27 115.166 1477.47 116.74C1477.64 118.105 1477.46 119.34 1476.92 120.445C1476.38 121.549 1475.53 122.458 1474.38 123.171C1473.25 123.881 1471.86 124.342 1470.22 124.553C1468.69 124.749 1467.3 124.669 1466.06 124.311C1464.81 123.954 1463.78 123.356 1462.97 122.52C1462.15 121.66 1461.59 120.603 1461.29 119.348L1463.06 119.12C1463.31 120.523 1464.07 121.578 1465.34 122.286C1466.63 122.991 1468.19 123.226 1470.02 122.991C1471.98 122.738 1473.48 122.074 1474.52 121C1475.58 119.9 1476.01 118.562 1475.81 116.989C1475.65 115.762 1475.16 114.802 1474.34 114.107C1473.52 113.389 1472.36 112.939 1470.85 112.756L1466.44 112.228C1464.53 112.003 1463.03 111.432 1461.92 110.516C1460.81 109.576 1460.15 108.308 1459.95 106.711ZM1497.48 120.627L1482.96 122.492L1479.8 97.8442L1494.27 95.9844L1494.47 97.5118L1480.1 99.3583L1481.49 97.8384L1482.94 109.155L1494.61 107.657L1494.81 109.184L1483.14 110.683L1484.61 122.104L1482.87 120.951L1497.28 119.1L1497.48 120.627ZM1526.69 116.874L1510.86 118.907L1510.68 117.519L1517.61 109.607C1518.74 108.333 1519.65 107.227 1520.36 106.29C1521.06 105.352 1521.59 104.52 1521.94 103.792C1522.32 103.039 1522.55 102.314 1522.65 101.619C1522.75 100.924 1522.75 100.184 1522.65 99.3967C1522.42 97.6146 1521.72 96.2698 1520.54 95.3622C1519.37 94.4545 1517.89 94.1152 1516.1 94.3441C1514.28 94.579 1512.86 95.3957 1511.87 96.794C1510.87 98.1924 1510.47 99.926 1510.67 101.995L1509 102.209C1508.85 100.51 1509.03 98.9932 1509.54 97.6572C1510.07 96.2951 1510.89 95.1911 1511.98 94.3452C1513.09 93.4963 1514.42 92.9722 1515.97 92.773C1517.43 92.5857 1518.76 92.7331 1519.95 93.2153C1521.14 93.6743 1522.11 94.4075 1522.88 95.415C1523.64 96.4224 1524.12 97.6436 1524.3 99.0784C1524.42 99.981 1524.41 100.852 1524.28 101.692C1524.18 102.506 1523.91 103.352 1523.48 104.23C1523.07 105.082 1522.48 106.029 1521.69 107.071C1520.93 108.11 1519.95 109.318 1518.74 110.697L1512.3 118.052L1511.78 117.237L1526.5 115.346L1526.69 116.874ZM1528.92 104.06C1528.59 101.491 1528.68 99.2091 1529.2 97.2132C1529.72 95.1942 1530.63 93.5603 1531.93 92.3113C1533.23 91.0624 1534.88 90.3086 1536.89 90.0499C1538.91 89.7913 1540.7 90.102 1542.27 90.9823C1543.84 91.8625 1545.13 93.214 1546.15 95.0368C1547.15 96.8364 1547.82 99.0206 1548.15 101.59C1548.48 104.158 1548.39 106.452 1547.87 108.471C1547.35 110.467 1546.44 112.09 1545.14 113.339C1543.85 114.587 1542.19 115.341 1540.18 115.6C1538.16 115.859 1536.37 115.548 1534.8 114.668C1533.23 113.787 1531.94 112.447 1530.93 110.648C1529.92 108.825 1529.25 106.629 1528.92 104.06ZM1530.55 103.851C1530.84 106.072 1531.4 107.988 1532.24 109.597C1533.08 111.206 1534.16 112.409 1535.46 113.207C1536.78 113.978 1538.29 114.255 1539.98 114.038C1541.67 113.821 1543.04 113.174 1544.1 112.096C1545.18 110.993 1545.93 109.556 1546.34 107.786C1546.74 106.017 1546.81 104.021 1546.52 101.799C1546.23 99.5543 1545.67 97.6388 1544.83 96.0528C1543.99 94.4436 1542.91 93.2535 1541.58 92.4824C1540.28 91.6851 1538.78 91.395 1537.1 91.6121C1535.41 91.8292 1534.02 92.4894 1532.94 93.5929C1531.88 94.6703 1531.14 96.0938 1530.74 97.8635C1530.32 99.6101 1530.26 101.606 1530.55 103.851ZM1569.2 111.412L1553.37 113.446L1553.2 112.057L1560.12 104.145C1561.25 102.871 1562.17 101.765 1562.87 100.828C1563.57 99.8908 1564.1 99.0583 1564.45 98.3307C1564.83 97.5769 1565.06 96.8526 1565.16 96.1576C1565.26 95.4627 1565.26 94.7218 1565.16 93.9349C1564.93 92.1529 1564.23 90.8081 1563.05 89.9004C1561.88 88.9928 1560.4 88.6535 1558.62 88.8824C1556.79 89.1173 1555.38 89.9339 1554.38 91.3323C1553.38 92.7307 1552.98 94.4642 1553.18 96.5329L1551.51 96.747C1551.36 95.0486 1551.54 93.5315 1552.06 92.1955C1552.59 90.8334 1553.4 89.7294 1554.49 88.8835C1555.6 88.0346 1556.93 87.5105 1558.49 87.3113C1559.94 87.124 1561.27 87.2714 1562.46 87.7536C1563.65 88.2126 1564.62 88.9458 1565.39 89.9532C1566.15 90.9607 1566.63 92.1818 1566.81 93.6167C1566.93 94.5193 1566.92 95.3905 1566.79 96.2302C1566.69 97.0438 1566.42 97.8898 1565.99 98.7682C1565.58 99.6205 1564.99 100.567 1564.2 101.609C1563.44 102.648 1562.46 103.857 1561.25 105.236L1554.82 112.59L1554.29 111.776L1569.01 109.885L1569.2 111.412ZM1580.81 110.344C1579.19 110.552 1577.75 110.419 1576.49 109.946C1575.23 109.45 1574.2 108.665 1573.4 107.591C1572.6 106.494 1572.1 105.158 1571.9 103.585L1573.57 103.371C1573.81 105.291 1574.56 106.736 1575.82 107.704C1577.09 108.669 1578.69 109.028 1580.61 108.782C1581.98 108.606 1583.12 108.177 1584.05 107.494C1584.99 106.784 1585.68 105.896 1586.1 104.83C1586.53 103.74 1586.66 102.536 1586.49 101.216C1586.33 99.9899 1585.92 98.9017 1585.26 97.9518C1584.59 97.0018 1583.71 96.2914 1582.62 95.8205C1581.54 95.3235 1580.29 95.1672 1578.85 95.3515C1577.65 95.5062 1576.53 95.8963 1575.51 96.5221C1574.51 97.1449 1573.66 97.9002 1572.98 98.7882L1571.8 98.4102L1573.15 85.8507L1584.64 84.3745L1584.84 85.9019L1573.24 87.3915L1574.73 85.7541L1573.46 97.5623L1572.81 97.2216C1573.51 96.2612 1574.38 95.4913 1575.41 94.9118C1576.46 94.3063 1577.58 93.9276 1578.76 93.776C1580.49 93.553 1582.02 93.7446 1583.35 94.3507C1584.69 94.9539 1585.79 95.8488 1586.62 97.0354C1587.45 98.1989 1587.96 99.5328 1588.16 101.037C1588.36 102.634 1588.19 104.103 1587.63 105.445C1587.09 106.761 1586.23 107.859 1585.05 108.74C1583.89 109.595 1582.48 110.13 1580.81 110.344Z" fill="#FBFBDF"/>
<path d="M1720.23 99.9689L1718.56 100.183L1715.39 75.5356L1724.49 74.3671C1726.83 74.0668 1728.76 74.4538 1730.28 75.5281C1731.83 76.5994 1732.74 78.1881 1733.01 80.2941C1733.25 82.0993 1732.97 83.6761 1732.17 85.0246C1731.38 86.3499 1730.18 87.2917 1728.59 87.85L1735.5 98.0066L1733.63 98.2474L1726.88 88.2813L1718.86 89.3115L1720.23 99.9689ZM1717.26 76.849L1718.66 87.7841L1726.16 86.8207C1728.01 86.5829 1729.38 85.9125 1730.28 84.8097C1731.19 83.6807 1731.54 82.2715 1731.32 80.5821C1731.1 78.8232 1730.38 77.5508 1729.17 76.7648C1727.99 75.9527 1726.49 75.6626 1724.68 75.8945L1717.26 76.849ZM1754.84 95.5226L1740.32 97.3868L1737.16 72.7394L1751.63 70.8796L1751.83 72.407L1737.46 74.2535L1738.85 72.7336L1740.3 84.0506L1751.97 82.5521L1752.17 84.0795L1740.5 85.578L1741.97 96.9992L1740.23 95.846L1754.64 93.9951L1754.84 95.5226ZM1761.72 94.6379L1760.05 94.852L1756.89 70.2045L1758.59 69.986L1776.21 90.4121L1775.9 90.4522L1773.03 68.1307L1774.7 67.9166L1777.86 92.564L1776.2 92.7781L1758.58 72.352L1758.85 72.3163L1761.72 94.6379ZM1783.19 91.88L1781.52 92.0941L1787.48 66.2737L1789.95 65.9571L1802.35 89.4181L1800.65 89.6367L1797.16 83.0629L1784.87 84.6418L1783.19 91.88ZM1788.72 67.9148L1785.23 83.043L1796.41 81.6068L1789.14 67.8613C1789.1 67.7486 1789.05 67.6489 1788.99 67.5622C1788.93 67.4525 1788.88 67.3528 1788.85 67.2632C1788.83 67.3356 1788.81 67.4442 1788.78 67.589C1788.77 67.7077 1788.75 67.8163 1788.72 67.9148ZM1804.49 64.0888L1807.66 88.7363L1805.99 88.9503L1802.82 64.3029L1804.49 64.0888ZM1809.99 69.6983C1809.82 68.356 1810 67.1456 1810.52 66.0672C1811.06 64.9858 1811.9 64.1017 1813.03 63.4148C1814.17 62.7047 1815.54 62.2456 1817.16 62.0375C1818.57 61.8561 1819.84 61.9516 1820.97 62.324C1822.12 62.6703 1823.08 63.2762 1823.85 64.1418C1824.62 65.0075 1825.17 66.0894 1825.51 67.3878L1823.77 67.6108C1823.41 66.1041 1822.67 64.9997 1821.54 64.2973C1820.44 63.592 1819.05 63.3479 1817.36 63.565C1815.46 63.8088 1813.98 64.4694 1812.92 65.5467C1811.88 66.6211 1811.46 67.9336 1811.66 69.4842C1811.81 70.6645 1812.29 71.6035 1813.08 72.3011C1813.9 72.9727 1815.03 73.4029 1816.49 73.5918L1821.01 74.1408C1822.92 74.3658 1824.43 74.9597 1825.54 75.9225C1826.66 76.8854 1827.31 78.1537 1827.51 79.7274C1827.69 81.0928 1827.51 82.3278 1826.97 83.4323C1826.43 84.5369 1825.58 85.4456 1824.42 86.1587C1823.29 86.8687 1821.9 87.3293 1820.26 87.5404C1818.73 87.7366 1817.35 87.656 1816.1 87.2985C1814.86 86.941 1813.83 86.344 1813.01 85.5074C1812.2 84.6478 1811.64 83.5904 1811.34 82.3354L1813.11 82.1079C1813.36 83.5107 1814.12 84.566 1815.38 85.2736C1816.67 85.9782 1818.23 86.2131 1820.06 85.9782C1822.03 85.7255 1823.53 85.0619 1824.57 83.9875C1825.63 82.887 1826.06 81.5499 1825.85 79.9762C1825.7 78.7496 1825.21 77.789 1824.39 77.0943C1823.57 76.3764 1822.4 75.926 1820.9 75.7431L1816.49 75.2155C1814.58 74.9905 1813.07 74.4197 1811.96 73.5031C1810.86 72.5634 1810.2 71.2951 1809.99 69.6983ZM1847.52 83.6148L1833.01 85.4791L1829.84 60.8316L1844.32 58.9718L1844.52 60.4993L1830.14 62.3457L1831.54 60.8259L1832.99 72.1428L1844.65 70.6443L1844.85 72.1717L1833.19 73.6703L1834.65 85.0914L1832.92 83.9382L1847.32 82.0873L1847.52 83.6148ZM1876.74 79.8611L1860.91 81.8949L1860.73 80.5063L1867.65 72.5946C1868.78 71.3202 1869.7 70.2144 1870.4 69.2772C1871.11 68.3399 1871.63 67.5075 1871.99 66.7799C1872.36 66.0261 1872.6 65.3018 1872.7 64.6068C1872.79 63.9119 1872.79 63.171 1872.69 62.3841C1872.46 60.6021 1871.76 59.2573 1870.59 58.3496C1869.41 57.442 1867.93 57.1026 1866.15 57.3316C1864.32 57.5665 1862.91 58.3831 1861.91 59.7815C1860.92 61.1799 1860.52 62.9134 1860.71 64.9821L1859.04 65.1962C1858.9 63.4978 1859.08 61.9806 1859.59 60.6447C1860.12 59.2826 1860.93 58.1786 1862.02 57.3327C1863.14 56.4838 1864.47 55.9597 1866.02 55.7605C1867.48 55.5732 1868.8 55.7206 1869.99 56.2027C1871.18 56.6617 1872.16 57.395 1872.92 58.4024C1873.69 59.4099 1874.16 60.631 1874.35 62.0659C1874.46 62.9685 1874.46 63.8396 1874.33 64.6794C1874.22 65.493 1873.95 66.339 1873.53 67.2174C1873.12 68.0697 1872.52 69.0167 1871.74 70.0584C1870.98 71.0971 1869.99 72.3059 1868.78 73.6847L1862.35 81.0391L1861.82 80.2247L1876.54 78.3337L1876.74 79.8611ZM1878.97 67.0478C1878.64 64.4789 1878.73 62.1966 1879.25 60.2007C1879.77 58.1817 1880.67 56.5477 1881.97 55.2988C1883.27 54.0499 1884.93 53.2961 1886.94 53.0374C1888.95 52.7787 1890.75 53.0895 1892.32 53.9697C1893.89 54.85 1895.18 56.2015 1896.19 58.0242C1897.2 59.8238 1897.87 62.0081 1898.2 64.577C1898.53 67.1459 1898.43 69.4398 1897.92 71.4588C1897.4 73.4547 1896.49 75.0771 1895.19 76.326C1893.89 77.5749 1892.24 78.3287 1890.22 78.5874C1888.21 78.8461 1886.42 78.5353 1884.84 77.6551C1883.27 76.7748 1881.98 75.4349 1880.98 73.6353C1879.97 71.8125 1879.3 69.6167 1878.97 67.0478ZM1880.6 66.8382C1880.88 69.0599 1881.45 70.9754 1882.29 72.5846C1883.13 74.1937 1884.2 75.3969 1885.5 76.1941C1886.83 76.9653 1888.33 77.2423 1890.02 77.0252C1891.71 76.8082 1893.09 76.161 1894.15 75.0836C1895.23 73.9801 1895.97 72.5435 1896.38 70.7738C1896.79 69.0041 1896.85 67.0083 1896.57 64.7866C1896.28 62.5417 1895.71 60.6263 1894.87 59.0402C1894.03 57.4311 1892.95 56.2409 1891.63 55.4698C1890.33 54.6726 1888.83 54.3825 1887.14 54.5996C1885.45 54.8166 1884.07 55.4769 1882.98 56.5804C1881.92 57.6577 1881.19 59.0813 1880.78 60.851C1880.37 62.5976 1880.31 64.5933 1880.6 66.8382ZM1919.25 74.3994L1903.42 76.4332L1903.24 75.0446L1910.16 67.1329C1911.29 65.8585 1912.21 64.7527 1912.91 63.8154C1913.62 62.8782 1914.15 62.0458 1914.5 61.3181C1914.87 60.5644 1915.11 59.84 1915.21 59.1451C1915.31 58.4502 1915.31 57.7093 1915.2 56.9224C1914.98 55.1404 1914.27 53.7955 1913.1 52.8879C1911.92 51.9803 1910.44 51.6409 1908.66 51.8699C1906.83 52.1047 1905.42 52.9214 1904.42 54.3198C1903.43 55.7182 1903.03 57.4517 1903.22 59.5204L1901.56 59.7344C1901.41 58.0361 1901.59 56.5189 1902.1 55.183C1902.63 53.8209 1903.44 52.7169 1904.53 51.871C1905.65 51.022 1906.98 50.498 1908.53 50.2988C1909.99 50.1115 1911.31 50.2589 1912.5 50.741C1913.69 51.2 1914.67 51.9332 1915.43 52.9407C1916.2 53.9481 1916.67 55.1693 1916.86 56.6042C1916.97 57.5068 1916.97 58.3779 1916.84 59.2177C1916.73 60.0313 1916.47 60.8773 1916.04 61.7557C1915.63 62.608 1915.03 63.5549 1914.25 64.5966C1913.49 65.6353 1912.5 66.8441 1911.29 68.223L1904.86 75.5773L1904.33 74.763L1919.05 72.872L1919.25 74.3994ZM1930.86 73.3313C1929.24 73.5394 1927.8 73.4069 1926.54 72.9336C1925.27 72.4373 1924.24 71.6521 1923.45 70.5782C1922.65 69.4812 1922.15 68.1458 1921.95 66.5721L1923.61 66.358C1923.86 68.2789 1924.61 69.7234 1925.86 70.6915C1927.14 71.6567 1928.74 72.0159 1930.66 71.7691C1932.02 71.5937 1933.17 71.1643 1934.09 70.481C1935.04 69.7716 1935.72 68.8837 1936.15 67.8172C1936.57 66.7275 1936.7 65.5231 1936.53 64.204C1936.38 62.9774 1935.96 61.8891 1935.3 60.9392C1934.64 59.9893 1933.76 59.2789 1932.66 58.808C1931.59 58.311 1930.33 58.1547 1928.9 58.339C1927.69 58.4936 1926.58 58.8838 1925.55 59.5095C1924.55 60.1323 1923.71 60.8877 1923.02 61.7756L1921.85 61.3976L1923.2 48.8382L1934.69 47.3619L1934.88 48.8894L1923.29 50.379L1924.77 48.7416L1923.5 60.5498L1922.86 60.209C1923.56 59.2487 1924.42 58.4788 1925.45 57.8993C1926.51 57.2937 1927.62 56.9151 1928.8 56.7635C1930.54 56.5405 1932.07 56.732 1933.39 57.3382C1934.74 57.9413 1935.83 58.8362 1936.67 60.0229C1937.5 61.1864 1938.01 62.5203 1938.2 64.0246C1938.41 65.6215 1938.23 67.0909 1937.68 68.4328C1937.14 69.7485 1936.28 70.8469 1935.1 71.7279C1933.94 72.5827 1932.53 73.1172 1930.86 73.3313Z" fill="#FBFBDF"/>
<defs>
<filter id="filter0_di_266_5" x="-80.2" y="0.800015" width="2136.29" height="330.509" filterUnits="userSpaceOnUse" color-interpolation-filters="sRGB">
<feFlood flood-opacity="0" result="BackgroundImageFix"/>
<feColorMatrix in="SourceAlpha" type="matrix" values="0 0 0 0 0 0 0 0 0 0 0 0 0 0 0 0 0 0 127 0" result="hardAlpha"/>
<feMorphology radius="5" operator="dilate" in="SourceAlpha" result="effect1_dropShadow_266_5"/>
<feOffset dy="4"/>
<feGaussianBlur stdDeviation="6.1"/>
<feComposite in2="hardAlpha" operator="out"/>
<feColorMatrix type="matrix" values="0 0 0 0 0.0509804 0 0 0 0 0.0862745 0 0 0 0 0.109804 0 0 0 1 0"/>
<feBlend mode="normal" in2="BackgroundImageFix" result="effect1_dropShadow_266_5"/>
<feBlend mode="normal" in="SourceGraphic" in2="effect1_dropShadow_266_5" result="shape"/>
<feColorMatrix in="SourceAlpha" type="matrix" values="0 0 0 0 0 0 0 0 0 0 0 0 0 0 0 0 0 0 127 0" result="hardAlpha"/>
<feOffset dy="6"/>
<feGaussianBlur stdDeviation="22.75"/>
<feComposite in2="hardAlpha" operator="arithmetic" k2="-1" k3="1"/>
<feColorMatrix type="matrix" values="0 0 0 0 0.177611 0 0 0 0 0.346047 0 0 0 0 0.453846 0 0 0 0.2 0"/>
<feBlend mode="normal" in2="shape" result="effect2_innerShadow_266_5"/>
</filter>
</defs>
</svg>
