<svg width="4579" height="1333" viewBox="0 0 4579 1333" fill="none" xmlns="http://www.w3.org/2000/svg">
<path d="M1064.04 1329.51C731.658 1376.8 387.211 878.454 348.796 821.138C346.549 817.787 342.669 816.264 338.676 816.89C318.074 820.118 297.305 821.573 274.81 822.811C269.468 823.105 265.278 827.504 265.278 832.841L255.218 1319.47C255.218 1325.01 250.714 1329.51 245.158 1329.51H10.2581C4.70212 1329.51 0.19812 1325.01 0.19812 1319.47L10.2581 10.1157C10.2581 4.57437 14.7621 0.0822754 20.318 0.0822754H265.278C518.788 4.59733 722.502 188.208 722.502 410.949C722.502 526.729 672.419 628.237 586.188 701.576C582.236 704.937 581.266 710.56 584.228 714.816C631.109 782.161 991.366 1283.42 1200.35 1093.72C1252.44 1046.44 1237.68 1039.15 1243.61 1034.21C1243.72 1034.11 1249.48 1032.25 1255.64 1033.21C1255.7 1033.22 1255.76 1033.24 1255.81 1033.28C1278.17 1047.14 1281.06 1092.06 1281.06 1128.02C1281.06 1128.02 1276.78 1187.62 1252.5 1221.05C1239.8 1238.54 1225.15 1258.81 1209.8 1270.49C1204.75 1274.34 1165.64 1315.05 1064.04 1329.51ZM275.742 256.555C270.041 256.111 265.278 260.685 265.278 266.388V557.016C265.278 562.719 270.041 567.293 275.742 566.848C381.202 558.626 467.482 492.546 467.482 410.949C467.482 330.809 381.202 264.776 275.742 256.555Z" fill="#FBFBDF"/>
<path d="M1259.7 678.841C1264.73 717.971 1264.73 756.599 1259.7 794.726C1255.68 831.85 1245.62 865.462 1229.52 895.562C1213.43 924.659 1190.29 948.237 1160.11 966.297C1130.94 984.357 1092.71 993.387 1045.43 993.387C992.108 993.387 949.856 983.856 918.671 964.792C887.485 944.725 863.844 916.632 847.748 880.512C831.652 844.391 821.089 801.248 816.059 751.081C812.035 699.911 810.023 643.724 810.023 582.52C810.023 444.059 827.628 341.217 862.838 273.994C899.054 206.77 959.916 173.158 1045.43 173.158C1121.88 173.158 1178.72 192.723 1215.94 231.853C1254.17 270.984 1273.28 331.686 1273.28 413.959C1273.28 497.236 1247.63 557.437 1196.32 594.56C1145.02 631.684 1076.61 645.229 991.102 635.195C991.102 714.459 993.114 772.151 997.138 808.271C1002.17 843.388 1018.26 860.946 1045.43 860.946C1058.5 860.946 1068.56 855.93 1075.61 845.896C1083.65 835.863 1088.68 822.82 1090.7 806.766C1093.71 789.71 1093.71 770.144 1090.7 748.071C1088.68 725.998 1084.66 703.422 1078.62 680.346L1259.7 678.841ZM991.102 531.35C999.15 531.35 1008.71 530.848 1019.77 529.845C1031.85 527.838 1042.91 523.323 1052.97 516.3C1064.04 508.273 1073.09 496.233 1080.13 480.18C1088.18 464.126 1092.2 442.053 1092.2 413.959C1092.2 399.913 1091.7 386.367 1090.7 373.324C1090.7 360.281 1089.19 348.742 1086.17 338.709C1084.16 328.676 1079.63 320.649 1072.59 314.629C1066.55 308.609 1057.5 305.599 1045.43 305.599C1021.28 305.599 1006.19 323.659 1000.16 359.779C994.12 394.896 991.102 452.086 991.102 531.35Z" fill="#FBFBDF"/>
<path d="M2193.77 157.104C2201.31 157.104 2205.84 161.619 2205.84 169.144V1195.56C2205.84 1201.58 2201.31 1207.6 2193.77 1207.6H1981C1976.47 1207.6 1971.95 1206.09 1970.44 1201.58L1612.81 703.422C1605.26 692.887 1590.17 697.402 1590.17 710.947L1594.7 1194.05C1594.7 1201.58 1588.66 1207.6 1581.12 1207.6H1350.24C1342.7 1207.6 1338.17 1201.58 1338.17 1195.56V169.144C1338.17 161.619 1342.7 157.104 1350.24 157.104H1561.5C1566.03 157.104 1569.05 158.609 1572.06 161.619L1931.2 700.412C1938.75 710.947 1953.84 706.432 1953.84 692.887L1949.31 169.144C1949.31 163.124 1955.35 157.104 1962.89 157.104H2193.77Z" fill="#FBFBDF"/>
<path d="M2649.52 827.325V683.923C2649.52 611.467 2649.52 551.087 2649.52 502.783C2649.52 454.48 2647.46 415.736 2643.34 386.552C2639.21 357.369 2631.65 336.739 2620.66 324.663C2611.03 312.587 2595.91 306.549 2575.29 306.549C2543.68 306.549 2523.06 321.644 2513.43 351.834L2292.8 315.606C2313.42 261.264 2345.73 221.011 2389.71 194.847C2433.7 168.682 2495.56 155.6 2575.29 155.6C2648.15 155.6 2705.2 166.669 2746.44 188.809C2789.05 209.942 2821.36 242.647 2843.35 286.926C2866.72 330.198 2881.15 385.043 2886.65 451.461C2893.52 517.878 2896.96 595.366 2896.96 683.923V827.325C2896.96 856.508 2897.46 903.087 2897.46 903.087L2899.02 978.274H2651.59V902.799C2650.21 881.667 2649.52 856.508 2649.52 827.325ZM2575.29 849.967C2593.16 849.967 2607.6 841.917 2618.59 825.815C2629.59 808.708 2637.84 787.575 2643.34 762.417C2648.84 737.258 2651.59 710.087 2651.59 680.904C2651.59 650.714 2648.15 623.04 2641.28 597.882C2635.78 572.723 2627.53 552.094 2616.53 535.992C2605.54 518.885 2591.79 510.331 2575.29 510.331C2557.42 510.331 2542.3 518.885 2529.93 535.992C2517.56 552.094 2507.93 572.723 2501.06 597.882C2494.19 623.04 2490.75 650.714 2490.75 680.904C2490.75 710.087 2493.5 737.258 2499 762.417C2505.87 787.575 2515.5 808.708 2527.87 825.815C2540.24 841.917 2556.05 849.967 2575.29 849.967ZM2575.29 970.727C2520.31 981.796 2472.88 980.79 2433.02 967.708C2393.15 954.625 2359.47 934.499 2331.98 907.328C2305.86 879.151 2285.93 845.942 2272.18 807.701C2259.81 768.455 2253.62 728.704 2253.62 688.451C2253.62 647.192 2260.5 606.939 2274.24 567.692C2287.99 528.445 2307.92 494.23 2334.04 465.046C2361.53 435.863 2395.21 414.226 2435.08 400.138C2476.32 385.043 2523.06 381.521 2575.29 389.571C2624.78 396.616 2665.33 414.73 2696.95 443.913C2729.94 473.097 2754 507.815 2769.12 548.068C2785.61 587.315 2793.86 630.084 2793.86 676.375C2795.24 721.66 2787.68 764.429 2771.18 804.682C2754.68 844.936 2729.94 880.157 2696.95 910.347C2665.33 940.537 2624.78 960.663 2575.29 970.727Z" fill="#FBFBDF"/>
<path d="M3259.62 1206.05C3259.62 1224.81 3250.9 1234.19 3233.46 1234.19H3024.22C3006.78 1234.19 2998.06 1224.81 2998.06 1206.05V529.421C2998.06 512.45 3006.78 503.964 3024.22 503.964H3232.15C3250.46 503.964 3259.62 512.45 3259.62 529.421V1206.05ZM3025.52 403.474C3007.21 403.474 2998.06 394.542 2998.06 376.677V183.737C2998.06 164.979 3007.21 155.6 3025.52 155.6H3232.15C3250.46 155.6 3259.62 164.979 3259.62 183.737V376.677C3259.62 394.542 3250.46 403.474 3232.15 403.474H3025.52Z" fill="#FBFBDF"/>
<path d="M2313.98 1199.07V1088.7C2313.98 1083.16 2318.49 1078.67 2324.04 1078.67H2429.67C2435.23 1078.67 2439.73 1083.16 2439.73 1088.7V1199.07C2439.73 1204.61 2435.23 1209.1 2429.67 1209.1H2324.04C2318.49 1209.1 2313.98 1204.61 2313.98 1199.07Z" fill="#FBFBDF"/>
<path d="M2771.71 1199.07V1088.7C2771.71 1083.16 2776.22 1078.67 2781.77 1078.67H2887.4C2892.96 1078.67 2897.46 1083.16 2897.46 1088.7V1199.07C2897.46 1204.61 2892.96 1209.1 2887.4 1209.1H2781.77C2776.22 1209.1 2771.71 1204.61 2771.71 1199.07Z" fill="#FBFBDF"/>
<path d="M2545.36 1199.07V1088.7C2545.36 1083.16 2549.87 1078.67 2555.42 1078.67H2661.05C2666.61 1078.67 2671.11 1083.16 2671.11 1088.7V1199.07C2671.11 1204.61 2666.61 1209.1 2661.05 1209.1H2555.42C2549.87 1209.1 2545.36 1204.61 2545.36 1199.07Z" fill="#FBFBDF"/>
<path d="M3706.29 571.203C3712.87 539.538 3715.5 509.192 3714.18 480.166C3714.18 449.82 3710.89 424.092 3704.32 402.982C3699.05 380.553 3690.5 362.742 3678.67 349.548C3666.83 336.354 3652.36 329.757 3635.26 329.757C3619.47 329.757 3606.97 334.375 3597.77 343.611C3588.56 351.527 3581.32 362.741 3576.06 377.255C3572.11 390.448 3569.48 404.962 3568.17 420.794C3566.85 435.307 3566.19 449.82 3566.19 464.333C3566.19 498.637 3575.4 526.344 3593.82 547.454C3612.24 567.245 3635.26 584.396 3662.88 598.91C3691.82 613.423 3722.08 628.596 3753.65 644.428C3786.53 658.941 3816.79 677.412 3844.41 699.842C3873.35 722.271 3897.03 751.957 3915.45 788.899C3933.86 824.523 3943.07 871.36 3943.07 929.413C3943.07 1032.32 3918.08 1108.85 3868.09 1158.98C3818.1 1209.12 3740.49 1234.19 3635.26 1234.19C3518.18 1234.19 3437.28 1199.88 3392.56 1131.28C3349.15 1061.35 3329.41 957.779 3333.36 820.565H3568.17C3553.7 907.643 3553.04 969.654 3566.19 1006.6C3580.66 1042.22 3603.69 1060.03 3635.26 1060.03C3649.73 1060.03 3661.56 1056.07 3670.77 1048.16C3679.98 1040.24 3687.22 1030.35 3692.48 1018.47C3697.74 1005.28 3701.03 990.764 3702.34 974.931C3704.97 959.099 3706.29 943.926 3706.29 929.413C3706.29 895.109 3697.08 868.062 3678.67 848.271C3660.25 827.161 3636.57 808.69 3607.63 792.858C3580.01 777.025 3549.75 761.852 3516.87 747.339C3485.29 732.826 3455.04 714.355 3426.1 691.925C3398.48 668.177 3375.45 638.491 3357.04 602.868C3338.62 567.245 3329.41 521.066 3329.41 464.333C3329.41 356.145 3355.07 277.642 3406.37 228.825C3457.67 180.008 3533.97 155.6 3635.26 155.6C3695.77 155.6 3745.1 164.176 3783.24 181.328C3822.71 198.479 3853.62 224.207 3875.98 258.511C3898.35 292.815 3914.13 336.354 3923.34 389.129C3932.55 440.585 3938.47 501.276 3941.1 571.203H3706.29Z" fill="#FBFBDF"/>
<path d="M4561.05 823.181C4567.63 874.311 4567.63 924.786 4561.05 974.605C4555.79 1023.11 4542.65 1067.03 4521.62 1106.36C4500.59 1144.38 4470.35 1175.19 4430.92 1198.79C4392.8 1222.39 4342.85 1234.19 4281.06 1234.19C4211.4 1234.19 4156.19 1221.73 4115.44 1196.82C4074.69 1170.6 4043.8 1133.89 4022.77 1086.7C4001.73 1039.5 3987.93 983.126 3981.36 917.575C3976.1 850.712 3973.47 777.295 3973.47 697.322C3973.47 516.4 3996.48 382.02 4042.48 294.181C4089.81 206.342 4169.33 162.422 4281.06 162.422C4380.97 162.422 4455.24 187.987 4503.87 239.118C4553.82 290.248 4578.8 369.565 4578.8 477.069C4578.8 585.885 4545.28 664.546 4478.24 713.054C4411.2 761.562 4321.81 779.261 4210.08 766.151C4210.08 869.722 4212.71 945.107 4217.97 992.304C4224.54 1038.19 4245.57 1061.13 4281.06 1061.13C4298.15 1061.13 4311.3 1054.58 4320.5 1041.47C4331.02 1028.36 4337.59 1011.31 4340.22 990.337C4344.16 968.05 4344.16 942.484 4340.22 913.642C4337.59 884.799 4332.33 855.301 4324.44 825.147L4561.05 823.181ZM4210.08 630.46C4220.6 630.46 4233.09 629.804 4247.54 628.493C4263.32 625.871 4277.78 619.971 4290.92 610.794C4305.38 600.306 4317.21 584.574 4326.41 563.597C4336.93 542.621 4342.19 513.778 4342.19 477.069C4342.19 458.715 4341.53 441.016 4340.22 423.973C4340.22 406.929 4338.24 391.852 4334.3 378.742C4331.67 365.632 4325.76 355.144 4316.56 347.277C4308.67 339.411 4296.84 335.478 4281.06 335.478C4249.52 335.478 4229.8 359.077 4221.91 406.274C4214.02 452.16 4210.08 526.888 4210.08 630.46Z" fill="#FBFBDF"/>
</svg>
