<svg width="4579" height="1334" viewBox="0 0 4579 1334" fill="none" xmlns="http://www.w3.org/2000/svg">
<path d="M1064.04 1330.4C731.658 1377.69 387.211 879.348 348.796 822.032C346.549 818.681 342.669 817.158 338.676 817.783C318.074 821.011 297.305 822.467 274.81 823.705C269.468 823.999 265.278 828.398 265.278 833.735L255.218 1320.37C255.218 1325.91 250.714 1330.4 245.158 1330.4H10.2581C4.70212 1330.4 0.19812 1325.91 0.19812 1320.37L10.2581 11.0095C10.2581 5.46817 14.7621 0.976074 20.318 0.976074H265.278C518.788 5.49113 722.502 189.102 722.502 411.843C722.502 527.623 672.419 629.131 586.188 702.47C582.236 705.831 581.266 711.454 584.228 715.709C631.109 783.054 991.366 1284.31 1200.35 1094.61C1252.44 1047.33 1237.68 1040.04 1243.61 1035.1C1243.72 1035.01 1249.48 1033.15 1255.64 1034.11C1255.7 1034.12 1255.76 1034.14 1255.81 1034.17C1278.17 1048.04 1281.06 1092.95 1281.06 1128.91C1281.06 1128.91 1276.78 1188.51 1252.5 1221.95C1239.8 1239.43 1225.15 1259.7 1209.8 1271.39C1204.75 1275.23 1165.64 1315.94 1064.04 1330.4ZM275.742 257.449C270.041 257.005 265.278 261.579 265.278 267.282V557.91C265.278 563.613 270.041 568.186 275.742 567.742C381.202 559.52 467.482 493.44 467.482 411.843C467.482 331.703 381.202 265.67 275.742 257.449Z" fill="#7B0D16"/>
<path d="M1259.7 679.734C1264.73 718.865 1264.73 757.493 1259.7 795.62C1255.68 832.743 1245.62 866.355 1229.52 896.456C1213.43 925.552 1190.29 949.131 1160.11 967.191C1130.94 985.251 1092.71 994.281 1045.43 994.281C992.108 994.281 949.856 984.749 918.671 965.686C887.485 945.619 863.844 917.526 847.748 881.405C831.652 845.285 821.089 802.142 816.059 751.975C812.035 700.805 810.023 644.618 810.023 583.414C810.023 444.953 827.628 342.111 862.838 274.887C899.054 207.664 959.916 174.052 1045.43 174.052C1121.88 174.052 1178.72 193.617 1215.94 232.747C1254.17 271.877 1273.28 332.579 1273.28 414.853C1273.28 498.13 1247.63 558.33 1196.32 595.454C1145.02 632.577 1076.61 646.123 991.102 636.089C991.102 715.353 993.114 773.045 997.138 809.165C1002.17 844.282 1018.26 861.84 1045.43 861.84C1058.5 861.84 1068.56 856.824 1075.61 846.79C1083.65 836.757 1088.68 823.713 1090.7 807.66C1093.71 790.603 1093.71 771.038 1090.7 748.965C1088.68 726.891 1084.66 704.316 1078.62 681.239L1259.7 679.734ZM991.102 532.244C999.15 532.244 1008.71 531.742 1019.77 530.739C1031.85 528.732 1042.91 524.217 1052.97 517.194C1064.04 509.167 1073.09 497.127 1080.13 481.073C1088.18 465.02 1092.2 442.947 1092.2 414.853C1092.2 400.806 1091.7 387.261 1090.7 374.218C1090.7 361.175 1089.19 349.636 1086.17 339.603C1084.16 329.569 1079.63 321.543 1072.59 315.523C1066.55 309.503 1057.5 306.493 1045.43 306.493C1021.28 306.493 1006.19 324.553 1000.16 360.673C994.12 395.79 991.102 452.98 991.102 532.244Z" fill="#7B0D16"/>
<path d="M2193.77 157.998C2201.31 157.998 2205.84 162.513 2205.84 170.038V1196.45C2205.84 1202.47 2201.31 1208.49 2193.77 1208.49H1981C1976.47 1208.49 1971.95 1206.99 1970.44 1202.47L1612.81 704.316C1605.26 693.781 1590.17 698.296 1590.17 711.841L1594.7 1194.95C1594.7 1202.47 1588.66 1208.49 1581.12 1208.49H1350.24C1342.7 1208.49 1338.17 1202.47 1338.17 1196.45V170.038C1338.17 162.513 1342.7 157.998 1350.24 157.998H1561.5C1566.03 157.998 1569.05 159.503 1572.06 162.513L1931.2 701.306C1938.75 711.841 1953.84 707.326 1953.84 693.781L1949.31 170.038C1949.31 164.018 1955.35 157.998 1962.89 157.998H2193.77Z" fill="#7B0D16"/>
<path d="M2649.52 828.219V684.817C2649.52 612.361 2649.52 551.981 2649.52 503.677C2649.52 455.373 2647.46 416.63 2643.34 387.446C2639.21 358.263 2631.65 337.633 2620.66 325.557C2611.03 313.481 2595.91 307.443 2575.29 307.443C2543.68 307.443 2523.06 322.538 2513.43 352.728L2292.8 316.5C2313.42 262.158 2345.73 221.905 2389.71 195.74C2433.7 169.576 2495.56 156.494 2575.29 156.494C2648.15 156.494 2705.2 167.563 2746.44 189.702C2789.05 210.835 2821.36 243.541 2843.35 287.82C2866.72 331.092 2881.15 385.937 2886.65 452.354C2893.52 518.772 2896.96 596.26 2896.96 684.817V828.219C2896.96 857.402 2897.46 903.981 2897.46 903.981L2899.02 979.168H2651.59V903.693C2650.21 882.56 2649.52 857.402 2649.52 828.219ZM2575.29 850.861C2593.16 850.861 2607.6 842.81 2618.59 826.709C2629.59 809.601 2637.84 788.469 2643.34 763.31C2648.84 738.152 2651.59 710.981 2651.59 681.798C2651.59 651.608 2648.15 623.934 2641.28 598.775C2635.78 573.617 2627.53 552.987 2616.53 536.886C2605.54 519.779 2591.79 511.225 2575.29 511.225C2557.42 511.225 2542.3 519.779 2529.93 536.886C2517.56 552.987 2507.93 573.617 2501.06 598.775C2494.19 623.934 2490.75 651.608 2490.75 681.798C2490.75 710.981 2493.5 738.152 2499 763.31C2505.87 788.469 2515.5 809.601 2527.87 826.709C2540.24 842.81 2556.05 850.861 2575.29 850.861ZM2575.29 971.621C2520.31 982.69 2472.88 981.684 2433.02 968.602C2393.15 955.519 2359.47 935.393 2331.98 908.222C2305.86 880.045 2285.93 846.836 2272.18 808.595C2259.81 769.348 2253.62 729.598 2253.62 689.345C2253.62 648.086 2260.5 607.832 2274.24 568.586C2287.99 529.339 2307.92 495.123 2334.04 465.94C2361.53 436.756 2395.21 415.12 2435.08 401.032C2476.32 385.937 2523.06 382.415 2575.29 390.465C2624.78 397.509 2665.33 415.623 2696.95 444.807C2729.94 473.991 2754 508.709 2769.12 548.962C2785.61 588.209 2793.86 630.978 2793.86 677.269C2795.24 722.554 2787.68 765.323 2771.18 805.576C2754.68 845.829 2729.94 881.051 2696.95 911.241C2665.33 941.431 2624.78 961.557 2575.29 971.621Z" fill="#7B0D16"/>
<path d="M3259.62 1206.95C3259.62 1225.7 3250.9 1235.08 3233.46 1235.08H3024.22C3006.78 1235.08 2998.06 1225.7 2998.06 1206.95V530.315C2998.06 513.343 3006.78 504.858 3024.22 504.858H3232.15C3250.46 504.858 3259.62 513.343 3259.62 530.315V1206.95ZM3025.52 404.368C3007.21 404.368 2998.06 395.436 2998.06 377.571V184.631C2998.06 165.873 3007.21 156.494 3025.52 156.494H3232.15C3250.46 156.494 3259.62 165.873 3259.62 184.631V377.571C3259.62 395.436 3250.46 404.368 3232.15 404.368H3025.52Z" fill="#7B0D16"/>
<path d="M2313.98 1199.97V1089.6C2313.98 1084.06 2318.49 1079.56 2324.04 1079.56H2429.67C2435.23 1079.56 2439.73 1084.06 2439.73 1089.6V1199.97C2439.73 1205.51 2435.23 1210 2429.67 1210H2324.04C2318.49 1210 2313.98 1205.51 2313.98 1199.97Z" fill="#7B0D16"/>
<path d="M2771.71 1199.97V1089.6C2771.71 1084.06 2776.22 1079.56 2781.77 1079.56H2887.4C2892.96 1079.56 2897.46 1084.06 2897.46 1089.6V1199.97C2897.46 1205.51 2892.96 1210 2887.4 1210H2781.77C2776.22 1210 2771.71 1205.51 2771.71 1199.97Z" fill="#7B0D16"/>
<path d="M2545.36 1199.97V1089.6C2545.36 1084.06 2549.87 1079.56 2555.42 1079.56H2661.05C2666.61 1079.56 2671.11 1084.06 2671.11 1089.6V1199.97C2671.11 1205.51 2666.61 1210 2661.05 1210H2555.42C2549.87 1210 2545.36 1205.51 2545.36 1199.97Z" fill="#7B0D16"/>
<path d="M3706.29 572.096C3712.87 540.431 3715.5 510.086 3714.18 481.06C3714.18 450.714 3710.89 424.986 3704.32 403.876C3699.05 381.447 3690.5 363.635 3678.67 350.442C3666.83 337.248 3652.36 330.651 3635.26 330.651C3619.47 330.651 3606.97 335.269 3597.77 344.504C3588.56 352.421 3581.32 363.635 3576.06 378.148C3572.11 391.342 3569.48 405.855 3568.17 421.688C3566.85 436.201 3566.19 450.714 3566.19 465.227C3566.19 499.531 3575.4 527.238 3593.82 548.348C3612.24 568.138 3635.26 585.29 3662.88 599.803C3691.82 614.317 3722.08 629.489 3753.65 645.322C3786.53 659.835 3816.79 678.306 3844.41 700.736C3873.35 723.165 3897.03 752.851 3915.45 789.793C3933.86 825.416 3943.07 872.254 3943.07 930.307C3943.07 1033.22 3918.08 1109.74 3868.09 1159.88C3818.1 1210.01 3740.49 1235.08 3635.26 1235.08C3518.18 1235.08 3437.28 1200.78 3392.56 1132.17C3349.15 1062.24 3329.41 958.673 3333.36 821.458H3568.17C3553.7 908.537 3553.04 970.548 3566.19 1007.49C3580.66 1043.11 3603.69 1060.92 3635.26 1060.92C3649.73 1060.92 3661.56 1056.97 3670.77 1049.05C3679.98 1041.13 3687.22 1031.24 3692.48 1019.36C3697.74 1006.17 3701.03 991.658 3702.34 975.825C3704.97 959.993 3706.29 944.82 3706.29 930.307C3706.29 896.003 3697.08 868.956 3678.67 849.165C3660.25 828.055 3636.57 809.584 3607.63 793.752C3580.01 777.919 3549.75 762.746 3516.87 748.233C3485.29 733.72 3455.04 715.249 3426.1 692.819C3398.48 669.071 3375.45 639.385 3357.04 603.762C3338.62 568.138 3329.41 521.96 3329.41 465.227C3329.41 357.038 3355.07 278.536 3406.37 229.719C3457.67 180.902 3533.97 156.494 3635.26 156.494C3695.77 156.494 3745.1 165.069 3783.24 182.221C3822.71 199.373 3853.62 225.101 3875.98 259.405C3898.35 293.708 3914.13 337.248 3923.34 390.023C3932.55 441.478 3938.47 502.17 3941.1 572.096H3706.29Z" fill="#7B0D16"/>
<path d="M4561.05 824.075C4567.63 875.205 4567.63 925.679 4561.05 975.498C4555.79 1024.01 4542.65 1067.93 4521.62 1107.26C4500.59 1145.28 4470.35 1176.09 4430.92 1199.68C4392.8 1223.28 4342.85 1235.08 4281.06 1235.08C4211.4 1235.08 4156.19 1222.63 4115.44 1197.72C4074.69 1171.5 4043.8 1134.79 4022.77 1087.59C4001.73 1040.39 3987.93 984.02 3981.36 918.469C3976.1 851.606 3973.47 778.189 3973.47 698.216C3973.47 517.294 3996.48 382.913 4042.48 295.075C4089.81 207.236 4169.33 163.316 4281.06 163.316C4380.97 163.316 4455.24 188.881 4503.87 240.011C4553.82 291.141 4578.8 370.459 4578.8 477.963C4578.8 586.778 4545.28 665.44 4478.24 713.948C4411.2 762.456 4321.81 780.155 4210.08 767.045C4210.08 870.616 4212.71 946 4217.97 993.197C4224.54 1039.08 4245.57 1062.03 4281.06 1062.03C4298.15 1062.03 4311.3 1055.47 4320.5 1042.36C4331.02 1029.25 4337.59 1012.21 4340.22 991.231C4344.16 968.943 4344.16 943.378 4340.22 914.536C4337.59 885.693 4332.33 856.195 4324.44 826.041L4561.05 824.075ZM4210.08 631.354C4220.6 631.354 4233.09 630.698 4247.54 629.387C4263.32 626.765 4277.78 620.865 4290.92 611.688C4305.38 601.2 4317.21 585.467 4326.41 564.491C4336.93 543.514 4342.19 514.672 4342.19 477.963C4342.19 459.609 4341.53 441.91 4340.22 424.866C4340.22 407.823 4338.24 392.746 4334.3 379.636C4331.67 366.526 4325.76 356.037 4316.56 348.171C4308.67 340.305 4296.84 336.372 4281.06 336.372C4249.52 336.372 4229.8 359.97 4221.91 407.167C4214.02 453.054 4210.08 527.782 4210.08 631.354Z" fill="#7B0D16"/>
</svg>
